<?xml version="1.0" encoding="utf-8"?>
<!-- Generator: Adobe Illustrator 16.2.0, SVG Export Plug-In . SVG Version: 6.00 Build 0)  -->
<svg version="1.2" baseProfile="tiny" xmlns="http://www.w3.org/2000/svg" xmlns:xlink="http://www.w3.org/1999/xlink" x="0px"
	 y="0px" width="2992px" height="586px" viewBox="0 0 2992 586" xml:space="preserve">
<g id="XMark_1_">
	<g id="lowerXmark">
		<path fill="#003366" d="M330.717,227.188c-13.839-7.035-27.683-14.073-41.521-21.109c-7.537-3.737-15.075-7.477-22.612-11.214
			c-11.812,8.267-23.627,16.536-35.438,24.804c-25.783,18.517-49.514,39.188-73.787,59.105c-7.008,6.244-14.018,12.49-21.025,18.734
			c-3.614,3.342-7.229,6.686-10.843,10.027c37.154,28.934,74.319,57.877,111.473,86.812c36.615-33.479,78.217-61.897,119.407-90.77
			c12.869-8.268,25.743-16.536,38.612-24.804c4.937-2.99,9.874-5.981,14.81-8.972c-6.654-3.693-13.312-7.389-19.967-11.082
			C370.569,247.672,350.205,238.313,330.717,227.188z M83.307,347.114c-13.31,14.335-26.624,28.676-39.935,43.011
			c-9.872,11.433-19.748,22.869-29.62,34.302C9.168,429.968,4.583,435.51,0,441.051c0.208,2.303,18.655,22.427,21.554,25.99
			c14.456,16.798,28.917,33.601,43.373,50.398c6.788,7.52,13.577,15.041,20.364,22.561c10.709-11.301,21.423-22.605,32.132-33.906
			c6.92-7.036,13.841-14.074,20.761-21.109c11.283-11.17,22.568-22.342,33.852-33.511c8.374-7.915,16.75-15.833,25.125-23.748
			c2.82-2.595,5.642-5.189,8.463-7.784c0-0.088,0-0.176,0-0.264c-35.083-29.902-70.175-59.813-105.258-89.715
			C94.68,335.68,88.993,341.398,83.307,347.114z M868.247,424.427c-9.872-11.433-19.748-22.869-29.62-34.302
			c-13.311-14.335-26.624-28.676-39.935-43.011c-5.686-5.716-11.372-11.435-17.059-17.151
			c-35.082,29.902-70.175,59.813-105.258,89.715c0,0.088,0,0.176,0,0.264c2.82,2.595,5.643,5.189,8.463,7.784
			c8.374,7.915,16.751,15.833,25.124,23.748c11.283,11.169,22.569,22.341,33.853,33.511c6.919,7.035,13.841,14.073,20.761,21.109
			c10.709,11.301,21.423,22.605,32.133,33.906c6.787-7.52,13.576-15.041,20.363-22.561c14.456-16.798,28.917-33.601,43.373-50.398
			c2.898-3.563,21.346-23.688,21.555-25.99C877.416,435.51,872.831,429.968,868.247,424.427z M530.919,205.155
			c19.172-9.234,38.35-18.472,57.521-27.706c-0.044-0.044-0.088-0.088-0.132-0.132c-7.978-4.881-15.957-9.764-23.935-14.645
			c-18.209-10.712-37.08-20.374-55.538-31.004c-16.131-8.048-32.267-16.097-48.397-24.144c-6.479-2.99-12.96-5.981-19.438-8.972
			c-6.479,2.99-12.96,5.981-19.438,8.972c-16.131,8.047-32.267,16.096-48.397,24.144c-18.459,10.63-37.329,20.292-55.538,31.004
			c-7.978,4.881-15.957,9.764-23.935,14.645c-0.044,0.044-0.088,0.088-0.133,0.132c19.173,9.234,38.35,18.472,57.522,27.706
			c19.128,9.85,38.261,19.702,57.39,29.553c10.533,5.805,21.995,12.402,32.529,18.207c10.533-5.805,21.995-12.402,32.529-18.207
			C492.657,224.857,511.791,215.005,530.919,205.155z M745.666,297.508c-7.008-6.244-14.018-12.49-21.024-18.734
			c-24.272-19.918-48.004-40.589-73.787-59.105c-11.812-8.268-23.627-16.537-35.438-24.804c-7.536,3.737-15.075,7.477-22.611,11.214
			c-13.839,7.036-27.683,14.074-41.521,21.109c-19.489,11.125-39.853,20.484-59.109,31.532c-6.654,3.693-13.312,7.389-19.967,11.082
			c4.937,2.99,9.873,5.981,14.811,8.972c12.869,8.268,25.743,16.536,38.612,24.804c41.19,28.872,82.791,57.29,119.407,90.77
			c37.153-28.935,74.318-57.878,111.473-86.812C752.896,304.193,749.28,300.85,745.666,297.508z"/>
	</g>
	<g id="upperXmark">
		<path fill="#C0A06F" d="M103.01,171.513c-15.637,12.667-29.736,27.119-45.092,39.976c-8.815,8.398-17.632,16.8-26.447,25.199
			c24.901,19.611,49.811,39.229,74.712,58.842c2.582-0.571,7.776-7.217,10.182-9.236c9.079-8.179,18.161-16.359,27.24-24.539
			c23.206-19.13,45.938-38.721,70.613-56.467c9.299-6.64,18.602-13.282,27.901-19.922c-32.438-15.698-64.886-31.401-97.324-47.1
			C131.408,149.916,116.761,160.373,103.01,171.513z M692.773,88.395c8.99,6.2,17.984,12.402,26.975,18.603
			c3.482,2.507,6.965,5.014,10.447,7.521c16.527-7.783,33.061-15.569,49.588-23.353c9.387-4.661,18.777-9.323,28.165-13.984
			c-0.044-0.044-0.088-0.088-0.132-0.132c-19.209-13.417-37.532-28.375-56.861-41.955c-11.547-7.783-23.098-15.568-34.645-23.352
			C710.229,7.828,704.145,3.913,698.062,0c-17.056,6.596-34.117,13.194-51.174,19.79c-13.795,5.013-27.594,10.027-41.389,15.04
			c0,0.044,0,0.088,0,0.132c11.019,6.376,22.039,12.754,33.058,19.13C656.973,65.257,675.388,76.193,692.773,88.395z
			 M151.805,114.518c3.481-2.507,6.964-5.014,10.446-7.521c8.991-6.2,17.984-12.402,26.976-18.603
			c17.385-12.201,35.8-23.138,54.216-34.303c11.019-6.376,22.04-12.754,33.059-19.13c0-0.044,0-0.088,0-0.132
			c-13.795-5.013-27.594-10.027-41.389-15.04C218.055,13.194,200.994,6.596,183.937,0c-6.082,3.913-12.166,7.828-18.248,11.742
			c-11.547,7.783-23.098,15.568-34.645,23.352c-19.329,13.58-37.652,28.538-56.861,41.955c-0.044,0.044-0.088,0.088-0.132,0.132
			c9.388,4.661,18.778,9.323,28.166,13.984C118.744,98.948,135.277,106.734,151.805,114.518z M322.519,50.267
			c-8.065-2.99-16.134-5.981-24.199-8.972c-8.065,4.441-16.133,8.884-24.198,13.325c-17.01,9.949-33.962,19.822-50.514,30.212
			c-12.076,7.96-24.156,15.921-36.232,23.88c-5.641,3.958-11.284,7.917-16.926,11.874c-0.088,0.088-0.176,0.177-0.264,0.264
			c34.024,15.348,68.06,30.698,102.084,46.045c12.604-7.695,25.214-15.393,37.818-23.088c15.603-8.707,31.209-17.416,46.812-26.123
			c14.059-7.123,28.123-14.249,42.183-21.373c6.038-2.858,12.078-5.718,18.115-8.575c-14.456-5.937-28.916-11.875-43.373-17.812
			C356.725,63.372,339.618,56.818,322.519,50.267z M824.081,211.488c-15.356-12.856-29.455-27.309-45.092-39.976
			c-13.751-11.14-28.397-21.597-41.785-33.247c-32.438,15.698-64.886,31.401-97.325,47.1c9.3,6.64,18.603,13.282,27.902,19.922
			c24.674,17.746,47.407,37.337,70.612,56.467c9.079,8.18,18.161,16.36,27.24,24.539c2.405,2.02,7.6,8.665,10.183,9.236
			c24.901-19.612,49.811-39.23,74.712-58.842C841.713,228.288,832.896,219.887,824.081,211.488z M711.55,120.586
			c-5.641-3.957-11.284-7.916-16.926-11.874c-12.076-7.959-24.156-15.92-36.232-23.88c-16.551-10.39-33.503-20.263-50.513-30.212
			c-8.065-4.441-16.134-8.884-24.199-13.325c-8.065,2.99-16.133,5.981-24.198,8.972c-17.101,6.552-34.206,13.105-51.307,19.657
			c-14.456,5.937-28.917,11.875-43.373,17.812c6.038,2.857,12.078,5.717,18.116,8.575c14.06,7.124,28.123,14.25,42.183,21.373
			c15.603,8.707,31.209,17.416,46.812,26.123c12.604,7.695,25.213,15.393,37.818,23.088c34.024-15.347,68.06-30.697,102.084-46.045
			C711.727,120.763,711.639,120.674,711.55,120.586z"/>
	</g>
</g>
<g id="FlexSim_1_">
	<g id="Sim">
		<path fill="#003366" d="M927,63.327v218.127h96.883V140.728h254.779v-26.387h-254.779V43.978c0-9.714,7.879-17.591,17.583-17.591
			h237.196V0H990.299C955.347,0,927,28.359,927,63.327z M1372.027,237.478V70.363h-77.365v147.799
			c0,34.941,28.344,63.292,63.3,63.292h167.039v-26.386h-135.39C1379.901,255.068,1372.027,247.19,1372.027,237.478z
			 M1609.225,237.478v-61.568h188.139V133.69c0-34.978-28.342-63.327-63.299-63.327h-138.907c-34.957,0-63.299,28.35-63.299,63.327
			v84.437c0,34.981,28.342,63.327,63.299,63.327h167.04v-26.386h-135.391C1617.098,255.068,1609.225,247.19,1609.225,237.478z
			 M1609.225,114.341c0-9.708,7.873-17.591,17.582-17.591h75.607c9.709,0,17.583,7.877,17.583,17.591v35.182h-110.772V114.341z
			 M1965.633,175.909l105.499-105.546h-77.366l-66.815,66.846l-66.816-66.846h-77.364l105.498,105.546L1782.77,281.454h77.364
			l66.816-66.845L2099.265,387h77.366L1965.633,175.909z"/>
	</g>
	<g id="Flex">
		<path fill="#C0A06F" d="M2203.104,26.387h242.119l-0.05-26.318L2156.86,0c-34.958,0-63.299,28.354-63.299,63.327V77.4
			c0,34.973,28.341,63.327,63.299,63.327h174.073c9.67,0,17.583,7.916,17.583,17.591v79.159c0,9.675-7.913,17.591-17.583,17.591
			h-237.372v26.386h288.362c34.963,0,63.299-28.354,63.299-63.327v-40.459c0-34.973-28.336-63.327-64.331-63.333l-177.788,0.006
			c-9.67,0-17.582-9.851-17.582-19.525V43.978C2185.521,34.302,2193.434,26.387,2203.104,26.387z M2461.048,281.454h77.366V70.363
			h-77.366V281.454z M2863.7,70.363h-309.462v211.091h77.365V96.75h70.333v184.704h77.365V96.75h52.749
			c9.671,0,17.584,7.916,17.584,17.591v167.113H2927V133.69C2927,98.718,2898.664,70.363,2863.7,70.363z"/>
	</g>
</g>
<g id="problemSolved_1_">
	<g id="solved">
		<path fill-rule="evenodd" fill="#003366" d="M2342.506,474.244l-27.987-11.015c-4.047-1.423-6.764-3.016-8.149-4.777
			c-1.388-1.76-2.08-4.738-2.08-8.937c0-4.195,0.861-7.38,2.586-9.554c2.847-3.446,9.628-5.171,20.345-5.171
			c4.646,0,10.077,0.694,16.298,2.08c6.22,1.387,11.24,2.866,15.063,4.439l4.833-16.186c-10.941-4.346-23.98-6.52-39.116-6.52
			c-15.137,0-25.627,2.923-31.473,8.768c-2.922,2.922-5.021,6.313-6.295,10.172c-1.274,3.86-1.91,8.975-1.91,15.343
			c0,6.37,1.703,11.673,5.114,15.905c3.409,4.234,9.459,7.888,18.153,10.959l28.325,10.454c5.244,1.949,8.579,4.178,10.004,6.688
			c1.423,2.512,2.136,6.351,2.136,11.521c0,11.915-7.98,17.872-23.942,17.872c-12.89,0-24.691-2.996-35.406-8.992l-5.171,15.512
			c4.047,2.248,9.853,4.422,17.423,6.519c7.567,2.098,16.223,3.147,25.965,3.147c13.337,0,23.191-3.165,29.562-9.498
			c6.368-6.331,9.555-14.443,9.555-24.335s-1.537-17.142-4.609-21.75C2358.653,482.281,2352.246,478.066,2342.506,474.244z
			 M2476.513,428.834c-7.98-6.817-20.477-10.229-37.485-10.229c-17.012,0-29.469,3.392-37.375,10.173
			c-7.906,6.782-11.857,16.056-11.857,27.819v47.996c0,11.765,3.951,21.019,11.857,27.763s20.363,10.116,37.375,10.116
			c17.009,0,29.505-3.39,37.485-10.172c7.98-6.781,11.971-16.018,11.971-27.707v-47.996
			C2488.483,444.907,2484.493,435.653,2476.513,428.834z M2467.352,506.392c0,13.264-9.404,19.896-28.213,19.896
			c-18.81,0-28.213-6.632-28.213-19.896v-51.593c0-13.337,9.403-20.008,28.213-20.008c18.809,0,28.213,6.671,28.213,20.008V506.392z
			 M2545.663,518.756c-2.849-2.922-4.271-9.179-4.271-18.771v-129.15h-21.132V499.76c0,16.936,3.148,28.14,9.442,33.608
			c3.372,2.923,7.268,4.909,11.689,5.957c4.421,1.049,10.116,1.574,17.085,1.574h6.07l2.473-17.76h-3.709
			C2554.393,523.14,2548.51,521.679,2545.663,518.756z M2635.215,517.52l-35.856-96.666h-21.244L2624.312,540h21.356l42.15-119.146
			h-20.682L2635.215,517.52z M2790.016,427.991c-7.907-6.256-19.971-9.386-36.193-9.386c-16.225,0-28.346,3.372-36.362,10.116
			c-8.02,6.744-12.027,16-12.027,27.764v41.477c0,15.137,3.896,26.341,11.689,33.608c7.793,7.269,20.419,10.902,37.88,10.902
			c8.692,0,15.68-0.449,20.963-1.349s9.816-2.642,13.602-5.227c3.783-2.585,6.556-6.051,8.317-10.397
			c1.76-4.345,3.016-10.077,3.766-17.197h-18.659c-0.449,4.872-1.144,8.149-2.079,9.835c-0.938,1.687-1.687,2.941-2.248,3.766
			c-0.563,0.825-1.557,1.536-2.979,2.136c-1.425,0.601-2.811,1.124-4.159,1.573c-1.349,0.45-7.193,0.675-17.535,0.675
			c-10.341,0-17.498-1.929-21.469-5.789c-3.973-3.858-5.957-10.734-5.957-20.626v-16.748h75.31v-28.325
			C2801.874,443.185,2797.921,434.249,2790.016,427.991z M2781.417,468.85h-54.853v-14.275c0-7.043,2.378-12.101,7.138-15.174
			c4.757-3.072,11.595-4.609,20.513-4.609c8.917,0,15.681,1.275,20.289,3.822c4.608,2.548,6.913,7.193,6.913,13.938V468.85z
			 M2905.588,423.102c-8.02-2.996-16.823-4.496-26.414-4.496c-16.86,0-29.376,3.372-37.543,10.116
			c-8.168,6.744-12.252,16.298-12.252,28.662v44.962c0,12.29,3.803,22.05,11.409,29.28c7.604,7.232,19.538,10.847,35.8,10.847
			c5.846,0,11.764-1.012,17.76-3.035c5.994-2.022,10.828-4.457,14.5-7.306l3.484,7.868h14.388V370.722h-21.132V423.102z
			 M2905.588,518.756c-7.644,4.721-17.534,7.081-29.674,7.081c-6.82,0-12.758-1.872-17.816-5.62
			c-5.058-3.746-7.587-9.178-7.587-16.298v-48.896c0-13.488,10.077-20.232,30.236-20.232c9.74,0,18.021,1.649,24.841,4.946V518.756z
			 M2962.318,512.799V540h28.774v-27.201H2962.318z"/>
	</g>
	<g id="problem">
		<path fill-rule="evenodd" fill="#C0A06F" d="M1457.885,429.396c-7.682-7.194-18.902-10.791-33.664-10.791
			c-6.445,0-12.665,1.106-18.659,3.315c-5.995,2.212-10.717,4.853-14.162,7.925l-2.474-8.992h-16.635V585.86h21.132v-49.682
			c8.242,4.195,17.608,6.294,28.101,6.294c15.135,0,26.9-3.783,35.294-11.353c8.392-7.567,12.589-17.496,12.589-29.786v-43.275
			C1469.406,446.145,1465.565,436.59,1457.885,429.396z M1448.274,503.582c0,7.193-2.567,12.776-7.699,16.748
			c-5.134,3.973-12.384,5.957-21.75,5.957c-9.368,0-17.835-2.136-25.402-6.407v-72.499c1.573-2.397,4.926-5.096,10.06-8.094
			c5.132-2.996,11.353-4.496,18.659-4.496c7.306,0,13.488,1.874,18.546,5.62c5.059,3.748,7.587,9.068,7.587,15.962V503.582z
			 M1521.865,437.714v-16.86h-21.132V540h21.132v-83.402c0-4.795,4.232-9.217,12.701-13.264c8.467-4.047,17.797-6.069,27.988-6.069
			l0.674-18.098c-6.743-0.073-13.227,0.787-19.445,2.586C1531.868,425.051,1524.563,430.371,1521.865,437.714z M1666.213,428.834
			c-7.981-6.817-20.477-10.229-37.486-10.229c-17.012,0-29.469,3.392-37.374,10.173c-7.907,6.782-11.858,16.056-11.858,27.819
			v47.996c0,11.765,3.951,21.019,11.858,27.763c7.905,6.744,20.362,10.116,37.374,10.116c17.01,0,29.505-3.39,37.486-10.172
			c7.98-6.781,11.971-16.018,11.971-27.707v-47.996C1678.184,444.907,1674.193,435.653,1666.213,428.834z M1657.052,506.392
			c0,13.264-9.405,19.896-28.213,19.896c-18.811,0-28.213-6.632-28.213-19.896v-51.593c0-13.337,9.402-20.008,28.213-20.008
			c18.808,0,28.213,6.671,28.213,20.008V506.392z M1795.61,429.059c-7.794-6.969-18.248-10.453-31.36-10.453
			c-13.114,0-24.317,2.624-33.608,7.868v-55.752h-21.131V540h15.623l2.698-7.98c11.164,6.969,21.542,10.453,31.136,10.453
			c15.136,0,26.977-3.914,35.519-11.746c8.543-7.829,12.814-17.928,12.814-30.292v-43.163
			C1807.301,445.433,1803.403,436.027,1795.61,429.059z M1786.169,502.683c0,7.12-2.905,12.758-8.712,16.916
			c-5.808,4.159-13.001,6.238-21.581,6.238c-8.581,0-16.991-2.321-25.234-6.969V442.21c10.791-4.945,20.494-7.419,29.112-7.419
			c17.608,0,26.415,6.97,26.415,20.907V502.683z M1864.48,518.756c-2.85-2.922-4.271-9.179-4.271-18.771v-129.15h-21.132V499.76
			c0,16.936,3.147,28.14,9.441,33.608c3.372,2.923,7.268,4.909,11.69,5.957c4.42,1.049,10.115,1.574,17.085,1.574h6.069l2.474-17.76
			h-3.71C1873.209,523.14,1867.327,521.679,1864.48,518.756z M1990.955,427.991c-7.906-6.256-19.971-9.386-36.193-9.386
			c-16.225,0-28.345,3.372-36.362,10.116c-8.019,6.744-12.026,16-12.026,27.764v41.477c0,15.137,3.896,26.341,11.689,33.608
			c7.793,7.269,20.419,10.902,37.88,10.902c8.691,0,15.68-0.449,20.963-1.349s9.815-2.642,13.601-5.227
			c3.783-2.585,6.557-6.051,8.317-10.397c1.76-4.345,3.016-10.077,3.766-17.197h-18.658c-0.45,4.872-1.144,8.149-2.079,9.835
			c-0.938,1.687-1.687,2.941-2.249,3.766c-0.562,0.825-1.556,1.536-2.979,2.136c-1.424,0.601-2.81,1.124-4.159,1.573
			c-1.349,0.45-7.193,0.675-17.534,0.675s-17.498-1.929-21.469-5.789c-3.973-3.858-5.958-10.734-5.958-20.626v-16.748h75.311
			v-28.325C2002.814,443.185,1998.86,434.249,1990.955,427.991z M1982.356,468.85h-54.853v-14.275
			c0-7.043,2.378-12.101,7.138-15.174c4.758-3.072,11.596-4.609,20.514-4.609c8.917,0,15.68,1.275,20.289,3.822
			c4.608,2.548,6.912,7.193,6.912,13.938V468.85z M2200.945,439.962c-4.721-14.236-17.085-21.356-37.092-21.356
			c-15.512,0-27.578,4.31-36.194,12.926l-2.81,2.698c-6.295-10.415-17.405-15.624-33.327-15.624
			c-15.925,0-27.858,4.608-35.801,13.825v-11.577h-21.131V540h21.131v-84.863c0-6.144,2.341-11.072,7.025-14.781
			c4.683-3.709,11.37-5.564,20.063-5.564c17.159,0,25.74,5.809,25.74,17.423V540h21.132v-84.863c0-6.144,2.341-11.072,7.025-14.781
			c4.682-3.709,11.933-5.564,21.75-5.564c15.585,0,23.38,5.809,23.38,17.423V540h21.131v-86.55
			C2202.969,448.505,2202.295,444.009,2200.945,439.962z"/>
	</g>
</g>
</svg>
