<?xml version="1.0" encoding="utf-8"?>
<!-- Generator: Adobe Illustrator 17.1.0, SVG Export Plug-In . SVG Version: 6.00 Build 0)  -->
<svg version="1.2" baseProfile="tiny" id="Layer_1" xmlns="http://www.w3.org/2000/svg" xmlns:xlink="http://www.w3.org/1999/xlink"
	 x="0px" y="0px" viewBox="0 0 11374 2200" xml:space="preserve">
<path fill-rule="evenodd" fill="#1C3664" d="M7107,2200h-440l-980-980l-380,380h-440l600-600l-600-600h440l380,380l380-380h440
	l-600,600L7107,2200z M4950,1000H3880v350c0,55.2,44.8,100,100,100h770v150h-950c-198.8,0-360-161.1-360-360V760
	c0-198.8,161.2-360,360-360h790c198.8,0,360,161.2,360,360V1000z M4510,650c0-55.2-44.8-100-100-100h-430c-55.2,0-100,44.8-100,100
	v200h630V650z M2091,1240.2V400h440v950c0,55.2,44.8,100,100,100h770v150h-950C2252.2,1600,2091,1438.8,2091,1240.2z M551,1600H0
	V360C0,161.2,161.2,0,360,0h1640v150H651c-55.2,0-100,44.8-100,100v400h1449v150H551V1600z"/>
<path fill-rule="evenodd" fill="#C0A06E" d="M10934,1600V650c0-55-45-100-100-100h-300v1050h-440V550h-400v1050h-440V400h1760
	c198.8,0,360,161.2,360,360v840H10934z M8724,400h440v1200h-440V400z M8274,1600H6634v-150h1350c55,0,100-45,100-100V900
	c0-55-45-100-100-100h-990c-198.8,0-360-161.2-360-360v-80c0-198.8,161.2-360,360-360l1639.7,0.4L8634,150H7257
	c-55,0-100,45-100,100v289c0,55,45,111,100,111l1011.1,0c204.7,0,365.9,161.2,365.9,360v230C8634,1438.8,8472.8,1600,8274,1600z"/>
</svg>
