<?xml version="1.0" encoding="utf-8"?>
<!-- Generator: Adobe Illustrator 16.2.0, SVG Export Plug-In . SVG Version: 6.00 Build 0)  -->
<svg version="1.2" baseProfile="tiny" xmlns="http://www.w3.org/2000/svg" xmlns:xlink="http://www.w3.org/1999/xlink" x="0px"
	 y="0px" width="2992px" height="586px" viewBox="0 0 2992 586" xml:space="preserve">
<g id="XMark_1_">
	<g id="lowerXmark">
		<path fill="#003366" d="M330.717,227.188c-13.839-7.035-27.683-14.073-41.521-21.109c-7.537-3.737-15.075-7.477-22.612-11.214
			c-11.812,8.267-23.627,16.536-35.438,24.804c-25.783,18.517-49.514,39.188-73.787,59.105c-7.008,6.244-14.018,12.49-21.025,18.734
			c-3.614,3.342-7.229,6.686-10.843,10.027c37.154,28.934,74.319,57.877,111.473,86.812c36.615-33.479,78.217-61.897,119.407-90.77
			c12.869-8.268,25.743-16.536,38.612-24.804c4.937-2.99,9.874-5.981,14.81-8.972c-6.654-3.693-13.312-7.389-19.967-11.082
			C370.569,247.672,350.205,238.313,330.717,227.188z M83.307,347.114c-13.31,14.335-26.624,28.676-39.935,43.011
			c-9.872,11.433-19.748,22.869-29.62,34.302C9.168,429.968,4.583,435.51,0,441.051c0.208,2.303,18.655,22.427,21.554,25.99
			c14.456,16.798,28.917,33.601,43.373,50.398c6.788,7.52,13.577,15.041,20.364,22.561c10.709-11.301,21.423-22.605,32.132-33.906
			c6.92-7.036,13.841-14.074,20.761-21.109c11.283-11.17,22.568-22.342,33.852-33.511c8.374-7.915,16.75-15.833,25.125-23.748
			c2.82-2.595,5.642-5.189,8.463-7.784c0-0.088,0-0.176,0-0.264c-35.083-29.902-70.175-59.813-105.258-89.715
			C94.68,335.68,88.993,341.398,83.307,347.114z M868.247,424.427c-9.872-11.433-19.748-22.869-29.62-34.302
			c-13.311-14.335-26.624-28.676-39.935-43.011c-5.686-5.716-11.372-11.435-17.059-17.151
			c-35.082,29.902-70.175,59.813-105.258,89.715c0,0.088,0,0.176,0,0.264c2.82,2.595,5.643,5.189,8.463,7.784
			c8.374,7.915,16.751,15.833,25.124,23.748c11.283,11.169,22.569,22.341,33.853,33.511c6.919,7.035,13.841,14.073,20.761,21.109
			c10.709,11.301,21.423,22.605,32.133,33.906c6.787-7.52,13.576-15.041,20.363-22.561c14.456-16.798,28.917-33.601,43.373-50.398
			c2.898-3.563,21.346-23.688,21.555-25.99C877.416,435.51,872.831,429.968,868.247,424.427z M530.919,205.155
			c19.172-9.234,38.35-18.472,57.521-27.706c-0.044-0.044-0.088-0.088-0.132-0.132c-7.978-4.881-15.957-9.764-23.935-14.645
			c-18.209-10.712-37.08-20.374-55.538-31.004c-16.131-8.048-32.267-16.097-48.397-24.144c-6.479-2.99-12.96-5.981-19.438-8.972
			c-6.479,2.99-12.96,5.981-19.438,8.972c-16.131,8.047-32.267,16.096-48.397,24.144c-18.459,10.63-37.329,20.292-55.538,31.004
			c-7.978,4.881-15.957,9.764-23.935,14.645c-0.044,0.044-0.088,0.088-0.133,0.132c19.173,9.234,38.35,18.472,57.522,27.706
			c19.128,9.85,38.261,19.702,57.39,29.553c10.533,5.805,21.995,12.402,32.529,18.207c10.533-5.805,21.995-12.402,32.529-18.207
			C492.657,224.857,511.791,215.005,530.919,205.155z M745.666,297.508c-7.008-6.244-14.018-12.49-21.024-18.734
			c-24.272-19.918-48.004-40.589-73.787-59.105c-11.812-8.268-23.627-16.537-35.438-24.804c-7.536,3.737-15.075,7.477-22.611,11.214
			c-13.839,7.036-27.683,14.074-41.521,21.109c-19.489,11.125-39.853,20.484-59.109,31.532c-6.654,3.693-13.312,7.389-19.967,11.082
			c4.937,2.99,9.873,5.981,14.811,8.972c12.869,8.268,25.743,16.536,38.612,24.804c41.19,28.872,82.791,57.29,119.407,90.77
			c37.153-28.935,74.318-57.878,111.473-86.812C752.896,304.193,749.28,300.85,745.666,297.508z"/>
	</g>
	<g id="upperXmark">
		<path fill="#C0A06F" d="M103.01,171.513c-15.637,12.667-29.736,27.119-45.092,39.976c-8.815,8.398-17.632,16.8-26.447,25.199
			c24.901,19.611,49.811,39.229,74.712,58.842c2.582-0.571,7.776-7.217,10.182-9.236c9.079-8.179,18.161-16.359,27.24-24.539
			c23.206-19.13,45.938-38.721,70.613-56.467c9.299-6.64,18.602-13.282,27.901-19.922c-32.438-15.698-64.886-31.401-97.324-47.1
			C131.408,149.916,116.761,160.373,103.01,171.513z M692.773,88.395c8.99,6.2,17.984,12.402,26.975,18.603
			c3.482,2.507,6.965,5.014,10.447,7.521c16.527-7.783,33.061-15.569,49.588-23.353c9.387-4.661,18.777-9.323,28.165-13.984
			c-0.044-0.044-0.088-0.088-0.132-0.132c-19.209-13.417-37.532-28.375-56.861-41.955c-11.547-7.783-23.098-15.568-34.645-23.352
			C710.229,7.828,704.145,3.913,698.062,0c-17.056,6.596-34.117,13.194-51.174,19.79c-13.795,5.013-27.594,10.027-41.389,15.04
			c0,0.044,0,0.088,0,0.132c11.019,6.376,22.039,12.754,33.058,19.13C656.973,65.257,675.388,76.193,692.773,88.395z
			 M151.805,114.518c3.481-2.507,6.964-5.014,10.446-7.521c8.991-6.2,17.984-12.402,26.976-18.603
			c17.385-12.201,35.8-23.138,54.216-34.303c11.019-6.376,22.04-12.754,33.059-19.13c0-0.044,0-0.088,0-0.132
			c-13.795-5.013-27.594-10.027-41.389-15.04C218.055,13.194,200.994,6.596,183.937,0c-6.082,3.913-12.166,7.828-18.248,11.742
			c-11.547,7.783-23.098,15.568-34.645,23.352c-19.329,13.58-37.652,28.538-56.861,41.955c-0.044,0.044-0.088,0.088-0.132,0.132
			c9.388,4.661,18.778,9.323,28.166,13.984C118.744,98.948,135.277,106.734,151.805,114.518z M322.519,50.267
			c-8.065-2.99-16.134-5.981-24.199-8.972c-8.065,4.441-16.133,8.884-24.198,13.325c-17.01,9.949-33.962,19.822-50.514,30.212
			c-12.076,7.96-24.156,15.921-36.232,23.88c-5.641,3.958-11.284,7.917-16.926,11.874c-0.088,0.088-0.176,0.177-0.264,0.264
			c34.024,15.348,68.06,30.698,102.084,46.045c12.604-7.695,25.214-15.393,37.818-23.088c15.603-8.707,31.209-17.416,46.812-26.123
			c14.059-7.123,28.123-14.249,42.183-21.373c6.038-2.858,12.078-5.718,18.115-8.575c-14.456-5.937-28.916-11.875-43.373-17.812
			C356.725,63.372,339.618,56.818,322.519,50.267z M824.081,211.488c-15.356-12.856-29.455-27.309-45.092-39.976
			c-13.751-11.14-28.397-21.597-41.785-33.247c-32.438,15.698-64.886,31.401-97.325,47.1c9.3,6.64,18.603,13.282,27.902,19.922
			c24.674,17.746,47.407,37.337,70.612,56.467c9.079,8.18,18.161,16.36,27.24,24.539c2.405,2.02,7.6,8.665,10.183,9.236
			c24.901-19.612,49.811-39.23,74.712-58.842C841.713,228.288,832.896,219.887,824.081,211.488z M711.55,120.586
			c-5.641-3.957-11.284-7.916-16.926-11.874c-12.076-7.959-24.156-15.92-36.232-23.88c-16.551-10.39-33.503-20.263-50.513-30.212
			c-8.065-4.441-16.134-8.884-24.199-13.325c-8.065,2.99-16.133,5.981-24.198,8.972c-17.101,6.552-34.206,13.105-51.307,19.657
			c-14.456,5.937-28.917,11.875-43.373,17.812c6.038,2.857,12.078,5.717,18.116,8.575c14.06,7.124,28.123,14.25,42.183,21.373
			c15.603,8.707,31.209,17.416,46.812,26.123c12.604,7.695,25.213,15.393,37.818,23.088c34.024-15.347,68.06-30.697,102.084-46.045
			C711.727,120.763,711.639,120.674,711.55,120.586z"/>
	</g>
</g>
</svg>
